<svg width="40" height="40" viewBox="0 0 40 40" fill="none" xmlns="http://www.w3.org/2000/svg">
<path d="M11.6638 17.078L12.3886 18.3464C12.85 19.1538 13.0807 19.5576 13.0807 20.0002C13.0807 20.4428 12.85 20.8465 12.3886 21.654L11.6638 22.9223C9.6 26.5341 8.56808 28.3399 9.37279 29.2354C10.1775 30.131 12.083 29.2973 15.8941 27.63L26.3534 23.054C29.3459 21.7448 30.8422 21.0902 30.8422 20.0002C30.8422 18.9101 29.3459 18.2555 26.3534 16.9463L15.8941 12.3703C12.083 10.703 10.1775 9.86934 9.37279 10.7649C8.56808 11.6604 9.6 13.4663 11.6638 17.078Z" stroke="#33363F" stroke-width="3.33333"/>
</svg>
